<svg width="118" height="13" viewBox="0 0 118 13" fill="none" xmlns="http://www.w3.org/2000/svg">
<path d="M1.3875 12.9657H0.583496L3.8835 4.09765H4.2795L7.5555 12.9657H6.7395L4.0875 5.48965L1.3875 12.9657Z" fill="#004D75"/>
<path d="M9.39375 12.9657H8.98575V4.09765H9.71775V11.4777L15.3817 4.09765H15.8017V12.9657H15.0697V5.54965L9.39375 12.9657Z" fill="#004D75"/>
<path d="M18.9641 12.9657H18.2201V4.09765H18.9641V8.20165H23.9081V4.09765H24.6401V12.9657H23.9081V8.89765H18.9641V12.9657Z" fill="#004D75"/>
<path d="M32.4318 12.9657H27.0678V4.09765H32.4078V4.79365H27.7998V8.12965H32.0958V8.81365H27.7998V12.2697H32.4318V12.9657Z" fill="#004D75"/>
<path d="M37.7308 3.58165C36.8988 3.58165 36.1828 3.21765 35.5828 2.48965L35.9908 2.04565C36.5188 2.66165 37.0988 2.96965 37.7308 2.96965C38.3628 2.96965 38.9428 2.66165 39.4708 2.04565L39.8908 2.48965C39.2668 3.21765 38.5468 3.58165 37.7308 3.58165ZM34.6828 12.9657H34.2748V4.09765H35.0068V11.4777L40.6708 4.09765H41.0908V12.9657H40.3588V5.54965L34.6828 12.9657Z" fill="#004D75"/>
<path d="M49.8932 12.9657H48.9572L45.5132 8.81365L44.2412 10.3017V12.9657H43.5092V4.09765H44.2412V9.28165L48.6692 4.09765H49.5572L46.0052 8.28565L49.8932 12.9657Z" fill="#004D75"/>
<path d="M57.4292 12.9657H56.6252L55.5692 10.2777H51.8372L50.7812 12.9657H49.9772L53.5172 4.09765H53.9132L57.4292 12.9657ZM55.3292 9.59365L53.7092 5.40565L52.0772 9.59365H55.3292Z" fill="#004D75"/>
<path d="M69.2563 12.9657H67.3843L66.7243 11.0457H63.6283L62.9443 12.9657H61.0843L64.4683 4.09765H65.9203L69.2563 12.9657ZM66.2203 9.46165L65.1883 6.50965L64.1323 9.46165H66.2203Z" fill="#004D75"/>
<path d="M72.0918 12.9657H70.3398V4.09765H71.5158L74.9958 9.12565L78.4398 4.09765H79.6398V12.9657H77.8638V7.93765L75.2838 11.6457H74.6718L72.0918 7.93765V12.9657Z" fill="#004D75"/>
<path d="M83.3652 7.37365H85.0812C85.5772 7.37365 86.0172 7.43765 86.4012 7.56565C86.7852 7.69365 87.0892 7.85365 87.3132 8.04565C87.5372 8.23765 87.7212 8.46565 87.8652 8.72965C88.0172 8.99365 88.1172 9.24565 88.1652 9.48565C88.2212 9.72565 88.2492 9.96965 88.2492 10.2177C88.2492 10.9937 87.9812 11.6457 87.4452 12.1737C86.9012 12.7017 86.1612 12.9657 85.2252 12.9657H81.6132V4.09765H87.3972V5.64565H83.3652V7.37365ZM83.3652 11.4057H84.9252C85.4052 11.4057 85.7732 11.2937 86.0292 11.0697C86.2852 10.8377 86.4132 10.5377 86.4132 10.1697C86.4132 9.80965 86.2892 9.51365 86.0412 9.28165C85.8012 9.04965 85.4532 8.93365 84.9972 8.93365H83.3652V11.4057Z" fill="#004D75"/>
<path d="M95.6174 12.9657H89.6054V4.09765H95.6174V5.75365H91.3934V7.66165H95.3054V9.31765H91.3934V11.3097H95.6174V12.9657Z" fill="#004D75"/>
<path d="M99.022 12.9657H97.246V4.09765H99.022V7.63765H102.742V4.09765H104.518V12.9657H102.742V9.35365H99.022V12.9657Z" fill="#004D75"/>
<path d="M112.492 12.9657H106.48V4.09765H112.492V5.75365H108.268V7.66165H112.18V9.31765H108.268V11.3097H112.492V12.9657Z" fill="#004D75"/>
<path d="M116.423 4.00275H115.957L115.537 3.27845H115.3V4.00275H114.902V2.01294H115.664C115.884 2.01294 116.053 2.07397 116.17 2.19603C116.286 2.3181 116.345 2.46709 116.345 2.643C116.345 2.77583 116.31 2.89521 116.24 3.00111C116.172 3.10523 116.072 3.18062 115.941 3.22729L116.423 4.00275ZM115.661 2.38182H115.3V2.92034H115.626C115.726 2.92034 115.803 2.89521 115.855 2.84494C115.909 2.79468 115.936 2.72916 115.936 2.64839C115.936 2.5712 115.91 2.50748 115.86 2.45721C115.812 2.40695 115.745 2.38182 115.661 2.38182Z" fill="#004D75"/>
<path fill-rule="evenodd" clip-rule="evenodd" d="M115.536 5.17584C114.338 5.17584 113.367 4.20514 113.367 3.00772C113.367 1.8103 114.338 0.8396 115.536 0.8396C116.733 0.8396 117.704 1.8103 117.704 3.00772C117.704 4.20514 116.733 5.17584 115.536 5.17584ZM115.536 1.28627C114.585 1.28627 113.814 2.05699 113.814 3.00772C113.814 3.95845 114.585 4.72917 115.536 4.72917C116.486 4.72917 117.257 3.95845 117.257 3.00772C117.257 2.05699 116.486 1.28627 115.536 1.28627Z" fill="#004D75"/>
</svg>
